<svg xmlns="http://www.w3.org/2000/svg" viewBox="0 0 640 480" width="640" height="480">
  <defs>
    <linearGradient id="bg" x1="0" y1="0" x2="640" y2="480" gradientUnits="userSpaceOnUse">
      <stop offset="0" stop-color="#0B1220"/>
      <stop offset="1" stop-color="#020617"/>
    </linearGradient>
  </defs>
  <rect width="640" height="480" fill="url(#bg)"/>
  <!-- Keep the cube below GRUB's heading and the menu area clear. -->
  <g transform="translate(0 80)">
    <g transform="translate(320 56) scale(2.1) translate(-30 -33)">
      <polygon points="41.80,22.00 46.00,19.90 50.20,22.00 46.00,24.10" fill="#22D3EE" opacity="0.95"/>
      <polygon points="49.26,17.00 52.20,15.53 55.14,17.00 52.20,18.47" fill="#67E8F9" opacity="0.72"/>
      <polygon points="56.51,12.00 58.40,11.05 60.29,12.00 58.40,12.95" fill="#A5F3FC" opacity="0.5"/>
      <polygon points="25.00,19.19 37.66,26.50 25.00,33.81 12.34,26.50" fill="#22D3EE"/>
      <polygon points="11.31,28.29 23.97,35.59 23.97,50.22 11.31,42.91" fill="#6366F1"/>
      <polygon points="26.03,35.59 38.69,28.29 38.69,42.91 26.03,50.22" fill="#7C3AED"/>
    </g>
    <text x="214" y="140" font-family="system-ui,-apple-system,Segoe UI,Roboto,Helvetica,Arial,sans-serif" font-size="40" font-weight="700" letter-spacing="-1"><tspan fill="#F8FAFC">Daygle</tspan><tspan fill="#22D3EE">VE</tspan></text>
    <text x="320" y="158" text-anchor="middle" font-family="system-ui,-apple-system,Segoe UI,Roboto,Helvetica,Arial,sans-serif" font-size="13" font-weight="500" letter-spacing="3" fill="#94A3B8">SINGLE-NODE VIRTUALIZATION</text>
  </g>
</svg>
